<svg width="41" height="41" viewBox="0 0 41 41" fill="none" xmlns="http://www.w3.org/2000/svg">
<rect width="41" height="41" fill="#D91919"/>
<path d="M32.4583 18.7915H8.54167C6.65469 18.7915 5.125 20.3212 5.125 22.2082V34.1665C5.125 36.0535 6.65469 37.5832 8.54167 37.5832H32.4583C34.3453 37.5832 35.875 36.0535 35.875 34.1665V22.2082C35.875 20.3212 34.3453 18.7915 32.4583 18.7915Z" stroke="black" stroke-width="2" stroke-linecap="round" stroke-linejoin="round"/>
<path d="M11.9585 18.7915V11.9582C11.9585 9.69278 12.8584 7.52017 14.4603 5.9183C16.0622 4.31643 18.2348 3.4165 20.5002 3.4165C22.7656 3.4165 24.9382 4.31643 26.54 5.9183C28.1419 7.52017 29.0418 9.69278 29.0418 11.9582V18.7915" stroke="black" stroke-width="2" stroke-linecap="round" stroke-linejoin="round"/>
</svg>
