<svg width="41" height="41" viewBox="0 0 41 41" fill="none" xmlns="http://www.w3.org/2000/svg">
<rect width="41" height="41" fill="#898989"/>
<path d="M15.3748 22.2082C16.3183 22.2082 17.0832 21.4433 17.0832 20.4998C17.0832 19.5564 16.3183 18.7915 15.3748 18.7915C14.4314 18.7915 13.6665 19.5564 13.6665 20.4998C13.6665 21.4433 14.4314 22.2082 15.3748 22.2082Z" stroke="black" stroke-width="2" stroke-linecap="round" stroke-linejoin="round"/>
<path d="M25.6248 22.2082C26.5683 22.2082 27.3332 21.4433 27.3332 20.4998C27.3332 19.5564 26.5683 18.7915 25.6248 18.7915C24.6814 18.7915 23.9165 19.5564 23.9165 20.4998C23.9165 21.4433 24.6814 22.2082 25.6248 22.2082Z" stroke="black" stroke-width="2" stroke-linecap="round" stroke-linejoin="round"/>
<path d="M13.6665 34.1665V37.5832H27.3332V34.1665" stroke="black" stroke-width="2" stroke-linecap="round" stroke-linejoin="round"/>
<path d="M21.3543 29.0418L20.5002 27.3335L19.646 29.0418H21.3543Z" stroke="black" stroke-width="2" stroke-linecap="round" stroke-linejoin="round"/>
<path d="M27.3335 34.1668C27.977 34.1664 28.6073 33.9843 29.1519 33.6414C29.6965 33.2985 30.1331 32.8088 30.4116 32.2286C30.69 31.6485 30.799 31.0015 30.7259 30.3621C30.6529 29.7228 30.4007 29.1171 29.9985 28.6147C31.9562 26.7224 33.304 24.2884 33.8692 21.6249C34.4343 18.9615 34.191 16.1899 33.1705 13.6656C32.1499 11.1413 30.3986 8.97945 28.1411 7.45716C25.8837 5.93487 23.2229 5.12158 20.5002 5.12158C17.7774 5.12158 15.1167 5.93487 12.8592 7.45716C10.6017 8.97945 8.85044 11.1413 7.82987 13.6656C6.8093 16.1899 6.56599 18.9615 7.13114 21.6249C7.69629 24.2884 9.04413 26.7224 11.0018 28.6147C10.5996 29.1171 10.3475 29.7228 10.2744 30.3621C10.2013 31.0015 10.3103 31.6485 10.5888 32.2286C10.8672 32.8088 11.3039 33.2985 11.8484 33.6414C12.393 33.9843 13.0233 34.1664 13.6668 34.1668" stroke="black" stroke-width="2" stroke-linecap="round" stroke-linejoin="round"/>
</svg>
