<svg width="92" height="106" viewBox="0 0 92 106" fill="none" xmlns="http://www.w3.org/2000/svg">
<rect x="0.640856" y="21.6958" width="61.56" height="87.32" rx="5.5" transform="rotate(-20 0.640856 21.6958)" fill="white" stroke="black"/>
<rect x="15.2992" y="18.6292" width="61.56" height="87.32" rx="5.5" transform="rotate(-10 15.2992 18.6292)" fill="white" stroke="black"/>
<rect x="29.3359" y="17.5811" width="62.1642" height="86.8806" rx="5.5" fill="white" stroke="black"/>
<path d="M64.5881 55.2238V57.3544H55.767V55.2238H64.5881ZM58.4091 71.5874V52.9652C58.4091 52.0277 58.6293 51.2465 59.0696 50.6215C59.5099 49.9965 60.0817 49.5277 60.7848 49.2152C61.4879 48.9027 62.2301 48.7465 63.0114 48.7465C63.6293 48.7465 64.1335 48.7962 64.5241 48.8956C64.9148 48.9951 65.206 49.0874 65.3977 49.1726L64.6733 51.3459C64.5455 51.3033 64.3679 51.25 64.1406 51.1861C63.9205 51.1222 63.6293 51.0902 63.267 51.0902C62.4361 51.0902 61.8359 51.2998 61.4666 51.7188C61.1044 52.1378 60.9233 52.7522 60.9233 53.5618V71.5874H58.4091Z" fill="black"/>
</svg>
