<svg width="67" height="77" viewBox="0 0 67 77" fill="none" xmlns="http://www.w3.org/2000/svg">
<rect x="0.640856" y="15.8809" width="44.56" height="63.32" rx="5.5" transform="rotate(-20 0.640856 15.8809)" fill="white" stroke="black"/>
<rect x="11.299" y="13.6771" width="44.56" height="63.32" rx="5.5" transform="rotate(-10 11.299 13.6771)" fill="white" stroke="black"/>
<rect x="21.5" y="12.9395" width="45" height="63" rx="5.5" fill="white" stroke="black"/>
<path d="M48.5881 39.0758V41.2065H39.767V39.0758H48.5881ZM42.4091 55.4395V36.8173C42.4091 35.8798 42.6293 35.0985 43.0696 34.4735C43.5099 33.8485 44.0817 33.3798 44.7848 33.0673C45.4879 32.7548 46.2301 32.5985 47.0114 32.5985C47.6293 32.5985 48.1335 32.6483 48.5241 32.7477C48.9148 32.8471 49.206 32.9395 49.3977 33.0247L48.6733 35.198C48.5455 35.1554 48.3679 35.1021 48.1406 35.0382C47.9205 34.9743 47.6293 34.9423 47.267 34.9423C46.4361 34.9423 45.8359 35.1518 45.4666 35.5708C45.1044 35.9899 44.9233 36.6042 44.9233 37.4139V55.4395H42.4091Z" fill="black"/>
</svg>
