<svg width="41" height="41" viewBox="0 0 41 41" fill="none" xmlns="http://www.w3.org/2000/svg">
<rect width="41" height="41" fill="#FF6B00"/>
<path d="M32.4583 18.7915H8.54167C6.65469 18.7915 5.125 20.3212 5.125 22.2082V34.1665C5.125 36.0535 6.65469 37.5832 8.54167 37.5832H32.4583C34.3453 37.5832 35.875 36.0535 35.875 34.1665V22.2082C35.875 20.3212 34.3453 18.7915 32.4583 18.7915Z" stroke="black" stroke-width="2" stroke-linecap="round" stroke-linejoin="round"/>
<path d="M11.9585 18.7918V11.9585C11.9564 9.84022 12.7414 7.79674 14.1612 6.22474C15.581 4.65273 17.5342 3.66435 19.6417 3.45147C21.7493 3.23859 23.8607 3.81639 25.5662 5.07272C27.2717 6.32904 28.4495 8.17425 28.871 10.2501" stroke="black" stroke-width="2" stroke-linecap="round" stroke-linejoin="round"/>
</svg>
