<?xml version="1.0" standalone="no"?>
<!DOCTYPE svg PUBLIC "-//W3C//DTD SVG 20010904//EN"
 "http://www.w3.org/TR/2001/REC-SVG-20010904/DTD/svg10.dtd">
<svg version="1.0" xmlns="http://www.w3.org/2000/svg"
 width="781.000000pt" height="319.000000pt" viewBox="0 0 781.000000 319.000000"
 preserveAspectRatio="xMidYMid meet">

<g transform="translate(0.000000,319.000000) scale(0.100000,-0.100000)"
fill="#000000" stroke="none">
<path d="M7650 2255 l0 -195 -3665 0 -3665 0 0 -225 0 -225 -34 0 c-19 0 -37
-4 -40 -9 -3 -5 22 -87 55 -182 34 -96 70 -202 81 -237 32 -100 42 -88 130
158 42 118 77 227 77 243 1 24 -2 27 -34 27 l-35 0 0 160 0 160 3645 0 3645 0
0 260 0 260 -80 0 -80 0 0 -195z"/>
</g>
</svg>
